<svg width="76" height="76" viewBox="0 0 76 76" fill="none" xmlns="http://www.w3.org/2000/svg">
<circle cx="38" cy="38" r="38" fill="#E4E4E4"/>
<path d="M48.9307 14.488H28.069C27.3613 14.4974 26.6852 14.7856 26.1848 15.2913C25.6844 15.797 25.3991 16.4802 25.3898 17.1953V59.0127C25.3906 59.7305 25.6731 60.4186 26.1754 60.9262C26.6777 61.4337 27.3586 61.7192 28.069 61.72H48.9307C49.6335 61.7268 50.3102 61.4517 50.8124 60.9549C51.3146 60.4582 51.6014 59.7805 51.6098 59.0704V17.1953C51.6091 16.4775 51.3265 15.7894 50.8243 15.2818C50.322 14.7743 49.641 14.4888 48.9307 14.488ZM34.8917 16.792C34.6655 16.798 34.4407 16.7537 34.2333 16.6621C34.0259 16.5706 33.841 16.4342 33.6916 16.2624L33.0536 15.64H37.9298V16.792H34.8917ZM39.0698 15.64H44.2897L43.6933 16.2433C43.3623 16.5647 42.9304 16.7589 42.4726 16.792H39.0698V15.64ZM50.4698 59.0704C50.4569 59.4734 50.2888 59.8555 50.0014 60.1352C49.7139 60.4149 49.3298 60.5702 48.9307 60.568H28.069C27.6609 60.5675 27.2697 60.4035 26.9812 60.1119C26.6926 59.8204 26.5303 59.425 26.5298 59.0127V17.1953C26.54 16.7861 26.7055 16.3964 26.9919 16.107C27.2784 15.8175 27.664 15.6503 28.069 15.64H31.4126L32.8666 17.0561C33.1207 17.3431 33.4333 17.5711 33.7829 17.7244C34.1324 17.8777 34.5107 17.9526 34.8917 17.944H42.4726C43.2201 17.9115 43.9305 17.6059 44.4718 17.084L45.9007 15.64H48.9307C49.3388 15.6405 49.73 15.8045 50.0185 16.0961C50.307 16.3877 50.4694 16.783 50.4698 17.1953V59.0704ZM37.9298 11.7965V10.6445C37.9298 10.4917 37.9899 10.3452 38.0968 10.2372C38.2037 10.1291 38.3487 10.0685 38.4998 10.0685C38.651 10.0685 38.796 10.1291 38.9029 10.2372C39.0098 10.3452 39.0698 10.4917 39.0698 10.6445V11.7965C39.0698 11.9492 39.0098 12.0957 38.9029 12.2037C38.796 12.3118 38.651 12.3725 38.4998 12.3725C38.3487 12.3725 38.2037 12.3118 38.0968 12.2037C37.9899 12.0957 37.9298 11.9492 37.9298 11.7965ZM37.9298 22.464V20.5245C37.9298 20.3717 37.9899 20.2252 38.0968 20.1172C38.2037 20.0092 38.3487 19.9485 38.4998 19.9485C38.651 19.9485 38.796 20.0092 38.9029 20.1172C39.0098 20.2252 39.0698 20.3717 39.0698 20.5245V22.464C39.0698 22.6168 39.0098 22.7633 38.9029 22.8713C38.796 22.9793 38.651 23.04 38.4998 23.04C38.3487 23.04 38.2037 22.9793 38.0968 22.8713C37.9899 22.7633 37.9298 22.6168 37.9298 22.464V22.464ZM61.1801 51.5495C61.1045 51.6817 60.98 51.7782 60.834 51.8178C60.688 51.8574 60.5324 51.8367 60.4014 51.7604L59.4142 51.1844C59.3493 51.1466 59.2924 51.0962 59.2468 51.0362C59.2012 50.9762 59.1677 50.9077 59.1483 50.8346C59.1289 50.7615 59.124 50.6853 59.1337 50.6102C59.1435 50.5352 59.1678 50.4629 59.2052 50.3973C59.2426 50.3318 59.2925 50.2743 59.3519 50.2283C59.4113 50.1822 59.4791 50.1484 59.5515 50.1288C59.6238 50.1092 59.6993 50.1043 59.7735 50.1142C59.8478 50.1241 59.9194 50.1487 59.9842 50.1865L60.9714 50.7625C61.1023 50.8389 61.1978 50.9647 61.237 51.1123C61.2761 51.2599 61.2557 51.4171 61.1801 51.5495V51.5495ZM56.1011 48.5862C56.0254 48.7185 55.9009 48.815 55.7549 48.8546C55.6089 48.8941 55.4533 48.8735 55.3223 48.7971L52.9842 47.4328C52.8533 47.3564 52.7578 47.2306 52.7187 47.083C52.6797 46.9355 52.7001 46.7783 52.7757 46.646C52.8513 46.5137 52.9757 46.4172 53.1217 46.3776C53.2677 46.338 53.4232 46.3586 53.5542 46.4349L55.8924 47.7993C56.0233 47.8757 56.1188 48.0015 56.158 48.1491C56.1971 48.2966 56.1766 48.4539 56.1011 48.5862H56.1011ZM49.462 44.0477L48.7598 43.638V32.6638C48.7599 32.5627 48.7335 32.4633 48.6835 32.3757C48.6335 32.2881 48.5615 32.2154 48.4748 32.1649L39.0698 26.6777V25.8584C39.0698 25.7056 39.0098 25.5591 38.9029 25.4511C38.796 25.3431 38.651 25.2824 38.4998 25.2824C38.3487 25.2824 38.2037 25.3431 38.0968 25.4511C37.9899 25.5591 37.9298 25.7056 37.9298 25.8584V26.6777L28.5248 32.1649C28.4382 32.2154 28.3662 32.2882 28.3162 32.3757C28.2661 32.4633 28.2398 32.5627 28.2398 32.6638V43.638L27.5376 44.0477C27.4068 44.1241 27.3113 44.2499 27.2722 44.3974C27.2331 44.545 27.2536 44.7022 27.3292 44.8345C27.4047 44.9667 27.5292 45.0633 27.6752 45.1029C27.8211 45.1425 27.9767 45.1218 28.1076 45.0455L28.8098 44.6359L38.2148 50.123C38.3015 50.1735 38.3998 50.2 38.4998 50.2C38.5999 50.2 38.6982 50.1735 38.7848 50.123L48.1898 44.6359L48.892 45.0456C48.9569 45.0834 49.0285 45.108 49.1027 45.1179C49.177 45.1278 49.2524 45.1228 49.3248 45.1033C49.3971 45.0837 49.4649 45.0499 49.5243 45.0038C49.5837 44.9578 49.6336 44.9003 49.671 44.8348C49.7085 44.7692 49.7328 44.6969 49.7425 44.6218C49.7523 44.5468 49.7473 44.4706 49.7279 44.3975C49.7085 44.3244 49.675 44.2559 49.6294 44.1959C49.5838 44.1358 49.5269 44.0855 49.462 44.0477V44.0477ZM38.4998 27.6755L47.0497 32.6637L38.4998 37.652L29.9499 32.6637L38.4998 27.6755ZM29.3798 33.6616L37.9298 38.6499V48.6264L29.3798 43.6382V33.6616ZM39.0698 48.6264V38.6499L47.6198 33.6616V43.6382L39.0698 48.6264ZM17.7942 50.3975C17.8698 50.5298 17.8902 50.687 17.8511 50.8346C17.8119 50.9822 17.7164 51.108 17.5855 51.1844L16.5983 51.7604C16.5334 51.7983 16.4618 51.8228 16.3876 51.8327C16.3133 51.8426 16.2379 51.8377 16.1656 51.8181C16.0932 51.7985 16.0254 51.7647 15.966 51.7187C15.9066 51.6726 15.8567 51.6151 15.8193 51.5496C15.7818 51.4841 15.7575 51.4117 15.7478 51.3367C15.738 51.2616 15.743 51.1854 15.7624 51.1123C15.7818 51.0392 15.8153 50.9707 15.8609 50.9107C15.9065 50.8507 15.9634 50.8003 16.0283 50.7625L17.0155 50.1865C17.1464 50.1102 17.302 50.0895 17.4481 50.129C17.5941 50.1686 17.7186 50.2652 17.7942 50.3975V50.3975ZM24.2242 46.6459C24.2998 46.7782 24.3202 46.9354 24.2811 47.083C24.2419 47.2306 24.1464 47.3564 24.0155 47.4328L21.6773 48.7971C21.6125 48.835 21.5409 48.8596 21.4667 48.8695C21.3924 48.8794 21.317 48.8744 21.2446 48.8548C21.1723 48.8353 21.1045 48.8015 21.045 48.7554C20.9856 48.7093 20.9358 48.6519 20.8983 48.5864C20.8609 48.5208 20.8366 48.4485 20.8268 48.3734C20.8171 48.2984 20.8221 48.2221 20.8415 48.1491C20.8609 48.076 20.8943 48.0074 20.94 47.9474C20.9856 47.8874 21.0424 47.8371 21.1073 47.7993L23.4455 46.4349C23.5103 46.397 23.5819 46.3725 23.6561 46.3626C23.7304 46.3527 23.8058 46.3576 23.8781 46.3772C23.9505 46.3968 24.0183 46.4306 24.0777 46.4767C24.137 46.5228 24.1869 46.5803 24.2242 46.6459V46.6459Z" fill="#088286"/>
</svg>
