<svg width="76" height="76" viewBox="0 0 76 76" fill="none" xmlns="http://www.w3.org/2000/svg">
<circle cx="38" cy="38" r="38" fill="#E4E4E4"/>
<path d="M15 52.9398C15 56.2871 17.7132 59 21.0602 59H55.9398C59.2871 59 62 56.2868 62 52.9398V18.0602C62 14.7129 59.2868 12 55.9398 12H21.0602C17.7129 12 15 14.7132 15 18.0602V52.9398Z" fill="#088286"/>
<path d="M34.4898 32.7898V26.1339H40.3486C40.9066 26.1339 41.4446 26.1804 41.9627 26.2734C42.4809 26.3664 42.9392 26.5324 43.3378 26.7716C43.7363 27.0107 44.0552 27.3428 44.2943 27.768C44.5334 28.1931 44.653 28.7378 44.653 29.4021C44.653 30.5977 44.2943 31.4613 43.5769 31.9927C42.8595 32.5241 41.9428 32.7898 40.8269 32.7898H34.4898ZM28.2324 21.2715V49.7285H42.0225C43.2979 49.7285 44.5401 49.5691 45.749 49.2502C46.958 48.9314 48.0341 48.4398 48.9774 47.7756C49.9206 47.1113 50.6712 46.2544 51.2292 45.2049C51.7872 44.1553 52.0662 42.9132 52.0662 41.4784C52.0662 39.6981 51.6344 38.177 50.7709 36.9149C49.9073 35.6528 48.5987 34.7693 46.8451 34.2645C48.1205 33.6533 49.0836 32.8695 49.7346 31.913C50.3856 30.9564 50.7111 29.7608 50.7111 28.326C50.7111 26.9974 50.4919 25.8815 50.0535 24.9781C49.6151 24.0747 48.9973 23.3506 48.2002 22.8059C47.4031 22.2612 46.4465 21.8693 45.3306 21.6302C44.2146 21.3911 42.9791 21.2715 41.624 21.2715H28.2324ZM34.4898 44.8661V37.0544H41.3051C42.6602 37.0544 43.7496 37.3666 44.5733 37.991C45.397 38.6154 45.8088 39.6583 45.8088 41.1197C45.8088 41.8636 45.6826 42.4748 45.4302 42.953C45.1778 43.4313 44.839 43.8099 44.4139 44.0889C43.9887 44.3679 43.4972 44.5672 42.9392 44.6868C42.3812 44.8063 41.7967 44.8661 41.1856 44.8661H34.4898Z" fill="white"/>
</svg>
