<svg width="76" height="76" viewBox="0 0 76 76" fill="none" xmlns="http://www.w3.org/2000/svg">
<circle cx="38" cy="38" r="38" fill="#E4E4E4"/>
<path fill-rule="evenodd" clip-rule="evenodd" d="M57.3637 50.715C54.8618 50.6453 52.9209 50.9018 51.2941 51.5861C50.8258 51.7742 50.0741 51.7742 50.0124 52.3638C50.2627 52.6111 50.2928 53.016 50.5123 53.3589C50.8875 53.9811 51.5452 54.8194 52.1391 55.2543L54.141 56.6849C55.3611 57.4305 56.7375 57.8661 57.926 58.6124C58.6146 59.0479 59.3025 59.6075 59.991 60.0744C60.3416 60.3231 60.5541 60.728 60.9923 60.8827V60.7886C60.7736 60.5099 60.7105 60.1057 60.4924 59.7935L59.5528 58.8925C58.6462 57.68 57.5193 56.6222 56.2993 55.7525C55.298 55.0682 53.1088 54.1358 52.7021 52.986L52.6404 52.9164C53.3276 52.8467 54.141 52.6049 54.7987 52.4181C55.8631 52.1394 56.8322 52.2007 57.926 51.9213L59.4287 51.4857V51.207C58.8656 50.6474 58.4589 49.9011 57.865 49.3729C56.2698 48.005 54.5168 46.6677 52.7021 45.5486C51.7324 44.927 50.4808 44.5221 49.4486 43.9946C49.0721 43.8079 48.4473 43.7145 48.2285 43.4037C47.6641 42.7208 47.352 41.8184 46.9454 41.0093L44.3804 35.5997C43.8173 34.3872 43.4723 33.1747 42.7852 32.0556C39.5625 26.77 36.0579 23.568 30.677 20.4273C29.52 19.7743 28.1436 19.4935 26.6802 19.1521L24.334 19.0266C23.8326 18.8092 23.3327 18.2183 22.8944 17.9382C21.1113 16.819 16.5122 14.394 15.1975 17.5897C14.3525 19.6106 16.4491 21.6001 17.1608 22.6265C17.6937 23.3415 18.3809 24.1498 18.7574 24.9582C18.9678 25.4864 19.0379 26.0467 19.2574 26.6062C19.7573 27.9741 20.2271 29.4981 20.8841 30.7734C21.2347 31.4263 21.6028 32.1113 22.0411 32.7015C22.2914 33.05 22.7297 33.1991 22.8229 33.7587C22.3847 34.3809 22.3545 35.3126 22.1042 36.091C20.9774 39.6045 21.4156 43.957 23.0108 46.5437C23.5122 47.3207 24.6937 49.0314 26.2966 48.3778C27.7046 47.8182 27.3905 46.0461 27.7972 44.4915C27.8918 44.1187 27.8287 43.8699 28.016 43.6204V43.6901L29.2991 46.2705C30.2689 47.7938 31.9588 49.3799 33.3661 50.4377C34.1163 50.9972 34.7109 51.9617 35.6491 52.3031V52.2091H35.5874C35.3995 51.9303 35.1176 51.8049 34.8673 51.5875C34.3042 51.0279 33.6788 50.3436 33.2405 49.722C31.9272 47.9813 30.7702 46.0531 29.7374 44.0636C29.236 43.0999 28.7978 42.0428 28.3925 41.079C28.2032 40.7055 28.2032 40.1453 27.8911 39.9599C27.4213 40.6428 26.7342 41.2351 26.3885 42.0741C25.7939 43.4107 25.7322 45.0587 25.5134 46.7688C25.3872 46.8001 25.4433 46.7688 25.3872 46.8385C24.3873 46.5904 24.0423 45.5632 23.6672 44.6936C22.729 42.486 22.5719 38.9418 23.3853 36.392C23.604 35.7391 24.5436 33.6869 24.1685 33.0653C23.9792 32.4744 23.3551 32.1329 23.0101 31.666C22.6034 31.0751 22.1666 30.3295 21.8847 29.6765C21.1344 27.9344 20.7593 26.0076 19.9452 24.2662C19.5687 23.4579 18.9124 22.6182 18.3802 21.8726C17.7856 21.0329 17.1299 20.4419 16.6601 19.4475C16.5038 19.0991 16.285 18.5458 16.5353 18.1723C16.597 17.9235 16.7232 17.8239 16.9722 17.7681C17.3789 17.4197 18.5372 17.8615 18.9439 18.0469C20.1009 18.5138 21.0706 18.9486 22.0404 19.6008C22.4786 19.9116 22.9484 20.5026 23.5115 20.6586H24.1692C25.1705 20.8761 26.2959 20.7283 27.2334 21.0071C28.8917 21.5367 30.393 22.313 31.7393 23.1534C35.8371 25.7338 39.2168 29.4027 41.4999 33.7872C41.875 34.5022 42.0314 35.1551 42.3764 35.9015C43.0341 37.4255 43.8475 38.9794 44.5031 40.4728C45.1608 41.9341 45.7863 43.4274 46.7245 44.6399C47.1943 45.2929 49.0707 45.6343 49.9149 45.9765C50.5411 46.2552 51.5101 46.5061 52.0746 46.8475C53.1376 47.5005 54.2013 48.2468 55.2019 48.9618C55.7018 49.3339 57.2669 50.1116 57.3602 50.7317L57.3637 50.715ZM25.4594 23.6969C25.0272 23.6931 24.5963 23.7453 24.1776 23.8523V23.922H24.2393C24.4897 24.4195 24.9279 24.7617 25.2406 25.1972L25.9608 26.6899L26.0225 26.6202C26.4607 26.3094 26.6802 25.8118 26.6802 25.0662C26.4923 24.8488 26.4614 24.6307 26.305 24.4133C26.1171 24.1025 25.7104 23.9464 25.4594 23.6983V23.6969Z" fill="#088286"/>
</svg>
