<svg width="76" height="76" viewBox="0 0 76 76" fill="none" xmlns="http://www.w3.org/2000/svg">
<circle cx="38" cy="38" r="38" fill="#E4E4E4"/>
<path fill-rule="evenodd" clip-rule="evenodd" d="M42.4909 44.5947C42.1176 44.5947 41.7783 44.9001 41.7783 45.3072C41.7783 45.6805 42.1176 45.9858 42.4909 45.9858C42.8641 45.9858 43.2034 45.6805 43.2034 45.3072C43.2034 44.9001 42.8641 44.5947 42.4909 44.5947Z" fill="black"/>
<path fill-rule="evenodd" clip-rule="evenodd" d="M59.7276 36.3157L40.2516 16.8398C39.1319 15.7201 37.3336 15.7201 36.2139 16.8398L32.1762 20.8775L37.2997 26.0009C38.4873 25.6277 39.8445 25.8652 40.7945 26.8153C41.7446 27.7992 42.016 29.1565 41.6089 30.344L46.5627 35.2978C47.7502 34.8907 49.1074 35.1621 50.0575 36.1122C51.4147 37.4354 51.4147 39.607 50.0575 40.9303C48.7342 42.2535 46.5627 42.2535 45.2394 40.9303C44.2554 39.9123 43.984 38.4533 44.4929 37.2319L39.9123 32.6173V44.7304C40.2177 44.9001 40.5231 45.1037 40.7945 45.3751C42.1178 46.6984 42.1178 48.8699 40.7945 50.1932C39.4713 51.5504 37.2997 51.5504 35.9764 50.1932C34.6532 48.8699 34.6532 46.6984 35.9764 45.3751C36.3157 45.0358 36.689 44.7983 37.0961 44.6286V32.4138C36.689 32.2441 36.3157 31.9727 35.9764 31.6673C34.9585 30.6494 34.721 29.1565 35.23 27.935L30.1744 22.8794L16.8398 36.2139C15.7201 37.3336 15.7201 39.1319 16.8398 40.2516L36.3157 59.7276C37.4354 60.8473 39.2337 60.8473 40.3534 59.7276L59.7276 40.3534C60.8473 39.2337 60.8473 37.4354 59.7276 36.3157Z" fill="#088286"/>
</svg>
