<svg width="76" height="76" viewBox="0 0 76 76" fill="none" xmlns="http://www.w3.org/2000/svg">
<circle cx="38" cy="38" r="38" fill="#E4E4E4"/>
<path d="M17 17H59V59H17V17Z" fill="#088286"/>
<path d="M28.0435 52.0983L31.2577 50.1531C31.8777 51.2526 32.4418 52.1828 33.7948 52.1828C35.0917 52.1828 35.9094 51.6754 35.9094 49.7021V36.2821H39.8563V49.7579C39.8563 53.8459 37.4601 55.7066 33.964 55.7066C30.8066 55.7066 28.9738 54.0714 28.0435 52.098" fill="#E4E4E4"/>
<path d="M42.0002 51.6753L45.214 49.8146C46.06 51.1962 47.1595 52.2111 49.1047 52.2111C50.7401 52.2111 51.783 51.3934 51.783 50.2657C51.783 48.9124 50.7117 48.4331 48.9073 47.6439L47.9208 47.2207C45.0732 46.0087 43.1842 44.4863 43.1842 41.2722C43.1842 38.3119 45.4396 36.0564 48.9638 36.0564C51.473 36.0564 53.2774 36.9305 54.5741 39.2141L51.501 41.1875C50.8244 39.9753 50.0916 39.4961 48.9639 39.4961C47.808 39.4961 47.0749 40.2291 47.0749 41.1875C47.0749 42.3717 47.808 42.8511 49.4994 43.5841L50.486 44.007C53.841 45.4449 55.73 46.9108 55.73 50.2093C55.73 53.7618 52.939 55.7069 49.1894 55.7069C45.5243 55.7069 43.156 53.9591 42.0003 51.6753" fill="#E4E4E4"/>
</svg>
