<svg width="76" height="76" viewBox="0 0 76 76" fill="none" xmlns="http://www.w3.org/2000/svg">
<circle cx="38" cy="38" r="38" fill="#E4E4E4"/>
<path d="M25.8095 22.6852C23.3131 26.3394 23.624 31.0932 25.526 34.9714L25.6659 35.2479L25.7604 35.4227C25.7779 35.4567 25.7982 35.4903 25.8161 35.5234C25.8492 35.5848 25.8823 35.6439 25.9106 35.7043L26.0926 36.0224L26.1965 36.1972L26.4078 36.5337L26.5023 36.6754C26.5968 36.8266 26.7036 36.9769 26.8085 37.1253C26.8108 37.1291 26.8142 37.1333 26.817 37.1371C26.8335 37.1607 26.852 37.1844 26.8642 37.208C26.955 37.3356 27.0533 37.4613 27.1478 37.586L27.2527 37.7221L27.5102 38.0444L27.6085 38.1644C27.7256 38.3059 27.8454 38.4451 27.9676 38.5822L27.9752 38.5897C27.9799 38.5959 27.9846 38.5992 27.9894 38.6053C28.1078 38.7389 28.2295 38.8697 28.3542 38.9975L28.4714 39.1176L28.7629 39.4086L28.882 39.5239C29.013 39.6495 29.1462 39.7728 29.2813 39.8939L29.3569 39.9601L29.7194 40.272L29.8696 40.3939L30.1721 40.6302L30.3337 40.7554L30.7958 41.0933C30.8076 41.1013 30.818 41.1098 30.8299 41.1178C30.9385 41.1935 31.0486 41.2667 31.1592 41.3399L31.3019 41.4368L31.8179 41.7581L31.9607 41.8399L32.3481 42.0611C32.419 42.0998 32.4913 42.1367 32.5622 42.1735L32.8391 42.3153L32.9029 42.3465L33.0163 42.4022L33.4558 42.6092L33.5489 42.6565C33.7183 42.7318 33.8891 42.8041 34.0611 42.8734L34.1859 42.9235L34.6693 43.1059L34.7298 43.1276C34.9083 43.1906 35.0879 43.2504 35.2685 43.3072L35.3984 43.3469C35.5875 43.4036 35.7647 43.4711 35.9546 43.5075C48.0273 45.755 51.535 36.1235 51.535 36.1235C48.5896 40.0315 43.3618 41.0616 38.4086 39.9147C38.221 39.8675 38.039 39.8122 37.8557 39.7569L37.7177 39.7097C37.5391 39.6539 37.3614 39.5948 37.1856 39.5334L37.1124 39.5065C36.9551 39.4498 36.7986 39.3907 36.6431 39.3293L36.5108 39.2763C36.3407 39.2079 36.1718 39.1364 36.0042 39.0618L35.9031 39.0164L35.4759 38.8132L35.3531 38.7528C35.2421 38.697 35.1318 38.6398 35.0223 38.5812L34.8016 38.4631C34.6683 38.39 34.5362 38.3145 34.4056 38.2367L34.2719 38.1611C34.098 38.0572 33.926 37.9485 33.7559 37.8398C33.7086 37.8091 33.6632 37.7765 33.6165 37.7453L33.2493 37.4967L33.1312 37.4117L32.7838 37.1565L32.6298 37.0383L32.3165 36.7888L32.1766 36.6754L31.7868 36.3447C31.7735 36.3328 31.7584 36.321 31.7395 36.3083C31.6006 36.184 31.464 36.0564 31.3293 35.9283L31.214 35.8149L30.9192 35.521L30.8039 35.4029C30.681 35.2752 30.5605 35.1454 30.4424 35.0135C30.4367 35.0069 30.4301 35.0007 30.4244 34.9946C30.2995 34.8551 30.1773 34.7133 30.0577 34.5693L29.9618 34.453L29.6972 34.1208L29.6003 33.998L29.2955 33.5845C26.5453 29.764 25.5624 24.4951 27.755 20.1675L25.8095 22.6852ZM33.5593 19.6061C31.7542 22.2524 31.852 25.7936 33.2602 28.592C33.4957 29.0619 33.7625 29.5155 34.0588 29.9497C34.3291 30.3442 34.6291 30.8144 34.9883 31.131C35.1182 31.2728 35.2543 31.4146 35.3932 31.5592C35.4282 31.5956 35.4641 31.63 35.5 31.6664C35.6349 31.8003 35.7729 31.9309 35.914 32.0582C35.9197 32.0629 35.9249 32.0686 35.931 32.0733C36.0899 32.2145 36.2523 32.3516 36.4182 32.4844L36.5278 32.5714C36.693 32.7012 36.8616 32.8266 37.0335 32.9475C37.0381 32.9513 37.0428 32.9549 37.0476 32.9584C37.1232 33.0118 37.2012 33.0623 37.2782 33.1134C37.3151 33.1379 37.3501 33.1639 37.3869 33.1871C37.5101 33.2678 37.6351 33.3457 37.7616 33.421L37.8146 33.4522L38.1454 33.6412C38.1841 33.6634 38.2238 33.6828 38.2635 33.7036L38.4998 33.8255C38.5116 33.8316 38.5234 33.8364 38.5347 33.842C38.694 33.9224 38.8542 33.998 39.0181 34.0712C39.0531 34.0868 39.089 34.101 39.1249 34.1161C39.2558 34.1728 39.3882 34.2276 39.5219 34.2801L39.692 34.3434C39.8126 34.3883 39.9339 34.4313 40.0559 34.4724L40.2203 34.5258C40.3937 34.5811 40.5653 34.6501 40.7463 34.6808C50.0672 36.2534 52.2197 28.9441 52.2197 28.9441C50.2799 31.7888 46.5236 33.1469 42.5145 32.0875C42.3372 32.0404 42.1612 31.9884 41.9867 31.9315C41.9333 31.915 41.8808 31.8975 41.8279 31.8843C41.7041 31.8434 41.5811 31.8002 41.4589 31.7548L41.292 31.6915C41.1583 31.6442 41.026 31.5852 40.8951 31.5285C40.8592 31.5129 40.8233 31.4987 40.7878 31.4821C40.6234 31.4102 40.4611 31.3334 40.3011 31.252C40.2189 31.2109 40.1381 31.1679 40.0573 31.1254L39.9165 31.0517C39.8125 30.9945 39.7096 30.9354 39.6079 30.8744L39.5342 30.8272C39.4083 30.752 39.2839 30.6745 39.1609 30.5947C39.1231 30.5701 39.0862 30.5474 39.0484 30.5181L38.8064 30.3551C38.6355 30.2341 38.4676 30.109 38.3027 29.9799L38.1893 29.8892C36.4347 28.4782 35.0436 26.5502 34.3825 24.3637C33.6892 22.0955 33.839 19.5508 35.044 17.4853L33.5593 19.6061ZM40.0757 17.3057C39.0115 18.901 38.9071 20.882 39.6504 22.6436C40.4292 24.5135 42.025 25.9807 43.8873 26.6759C43.9638 26.7052 44.0408 26.7312 44.1235 26.7576L44.2256 26.7907C44.3352 26.8257 44.4444 26.8663 44.5573 26.888C49.7043 27.9007 51.1002 24.1983 51.4716 23.6535C50.2487 25.4468 48.1936 25.8773 45.6721 25.254C45.4736 25.2044 45.2539 25.1311 45.0578 25.0621C44.811 24.9728 44.5692 24.8705 44.3334 24.7554C43.8846 24.5354 43.4591 24.2708 43.0631 23.9658C40.802 22.2221 39.4 18.8963 40.8724 16.1877" fill="#088286"/>
<path d="M28.7089 51.1703L28.3602 52.4065L28.7089 51.1708V51.1703ZM30.5027 53.8535L30.1185 53.8511L30.5027 53.8535ZM30.4082 55.6992L28.106 55.7077L30.4082 55.6992ZM30.8902 53.8563L30.5056 53.8539L30.8902 53.8563ZM30.6152 55.5423L31.0168 54.0127L30.6152 55.5423ZM39.088 48.4981L38.3413 52.0105L39.088 48.4981ZM37.167 48.4981L36.6 51.1221L37.167 48.4981Z" fill="#131B28"/>
<path d="M38.9557 48.3398H37.3585C37.2697 48.3398 37.1818 48.4106 37.1629 48.4976L36.0288 53.7462C36.0099 53.8327 35.922 53.9035 35.8336 53.9035H34.7028C33.5838 53.9035 33.7133 53.13 33.9467 52.0701L33.9538 52.0379L34.0894 51.3149L34.148 51.0172L34.6641 48.4976C34.682 48.4106 34.6239 48.3393 34.535 48.3393H32.8953C32.8501 48.3408 32.8066 48.3571 32.7715 48.3856C32.7364 48.4141 32.7115 48.4532 32.7006 48.4971L31.962 52.0006C31.5556 53.8549 31.6634 55.6231 33.8711 55.6784L33.9349 55.6798H37.3996C37.4885 55.6798 37.5759 55.609 37.5948 55.522L39.089 48.4971C39.1079 48.4102 39.0498 48.3393 38.9614 48.3393L38.9557 48.3398ZM45.329 53.922C45.4178 53.922 45.4707 53.9928 45.458 54.0798L45.303 54.8382L45.329 53.922ZM45.148 55.5971L45.303 54.8382L45.148 55.5971ZM44.9533 55.7569L42.0093 55.771L44.9533 55.7569Z" fill="#131B28"/>
<path d="M41.0559 52.9457C41.0545 52.8625 41.149 52.7198 41.2378 52.7198L41.0384 52.7165C40.9439 53.621 41.0559 52.9457 41.0559 52.9457ZM42.155 55.7706H42.1243H42.155ZM45.3291 53.922C45.418 53.922 45.4709 53.9929 45.4581 54.0798L45.2776 54.9616L45.3291 53.922ZM42.9111 55.773H42.9045H42.9111ZM42.5189 55.7701H42.4962H42.5189ZM42.3993 55.7706H42.3615H42.3993ZM42.2826 55.7706H42.2495H42.2826ZM42.5009 55.7701H42.4041H42.5009Z" fill="#131B28"/>
<path d="M42.9048 55.7729L42.5192 55.7744L42.9048 55.7729ZM44.9543 55.7611L42.9105 55.7734L44.9543 55.7611ZM45.1433 55.5972L45.2733 54.962L45.1433 55.5976V55.5972ZM42.3572 55.7706H42.2825H42.3666H42.3572ZM42.1233 55.7706H42.0098H42.1233ZM42.2447 55.7706H42.1502H42.2447ZM18.8725 52.9646L19.1206 51.8645L18.8371 53.1215L18.804 53.2793L18.873 52.9636L18.8725 52.9646ZM21.843 48.3218H20.0884C20.043 48.3236 19.9995 48.3398 19.964 48.3681C19.9286 48.3964 19.9031 48.4354 19.8913 48.4792L19.5587 49.9441C19.5531 49.963 19.5521 49.9831 19.5559 50.0025C19.5597 50.0219 19.5682 50.0401 19.5805 50.0555C19.5928 50.0709 19.6087 50.0832 19.6268 50.0912C19.6449 50.0992 19.6646 50.1027 19.6844 50.1014H21.4526C21.5415 50.1014 21.6294 50.0305 21.6483 49.9441L21.9696 48.4759C21.9885 48.3894 21.9318 48.3185 21.842 48.3185L21.843 48.3218ZM21.4611 50.7639L20.9413 53.1446L21.4611 50.7639ZM16.3642 58.6531L17.8112 58.6645C17.384 58.6645 16.6785 58.6564 16.3638 58.6526L16.3642 58.6531Z" fill="#131B28"/>
<path d="M19.364 50.7639L19.1154 51.864L19.364 50.7639ZM21.3345 50.6066H19.5657C19.5204 50.6084 19.4768 50.6246 19.4414 50.6529C19.4059 50.6812 19.3805 50.7201 19.3687 50.7639L18.8725 52.9641L18.8035 53.2798L18.331 55.5258C18.3076 55.6306 18.2792 55.7342 18.2459 55.8363C18.2459 55.8363 17.9151 56.8192 17.3604 56.8083L16.8098 56.7979C16.7647 56.7992 16.7211 56.8148 16.6854 56.8425C16.6497 56.8702 16.6238 56.9085 16.6114 56.9519L16.2452 58.4939C16.2394 58.5127 16.2382 58.5327 16.2418 58.5521C16.2453 58.5715 16.2535 58.5897 16.2656 58.6053C16.2777 58.6209 16.2933 58.6333 16.3113 58.6415C16.3292 58.6498 16.3488 58.6536 16.3685 58.6526L17.8159 58.6645C19.2033 58.6645 19.9343 57.8956 20.4036 55.6841L21.4668 50.7696C21.4857 50.6831 21.4281 50.6123 21.3392 50.6123L21.3345 50.6066ZM46.456 55.6808C46.3672 55.6808 46.3143 55.6099 46.3284 55.523L47.6587 49.292L46.456 55.6808ZM48.3046 55.5225L48.8433 52.863L48.3046 55.5225Z" fill="#131B28"/>
<path d="M46.3479 55.6019C46.337 55.5584 46.3432 55.4521 46.3621 55.3656L46.9934 52.4075L46.3281 55.523C46.3092 55.6099 46.3668 55.6808 46.4556 55.6808H46.6173C46.5284 55.6808 46.3583 55.6454 46.3479 55.6019ZM48.2003 55.6454C48.1521 55.6643 48.0396 55.6808 47.9508 55.6808H48.1124C48.1575 55.679 48.2008 55.6626 48.2357 55.6341C48.2707 55.6055 48.2954 55.5663 48.3061 55.5225L48.3383 55.3647C48.3208 55.4516 48.2438 55.626 48.1965 55.6454H48.2003ZM48.5736 54.1928L48.8113 53.0189L48.5736 54.1928ZM53.8226 49.7092L53.8959 50.0117C53.9162 50.0981 53.86 50.1685 53.7716 50.169" fill="#131B28"/>
<path d="M48.3369 55.3647L48.5731 54.1928L48.3369 55.3647ZM53.7504 49.3936L53.8227 49.7036L53.7504 49.3936ZM48.8113 53.0189L48.8765 52.7052L49.1303 51.5167L48.843 52.8625L48.8113 53.0185V53.0189ZM47.6805 49.1894L47.6252 49.4493L46.9939 52.4075L47.6592 49.292L47.6805 49.1899V49.1894Z" fill="#131B28"/>
<path d="M53.8962 50.0117L53.8229 49.7092L53.7143 49.2367C53.5706 48.6791 53.1491 48.3563 52.2333 48.3563L48.0182 48.3535C47.973 48.355 47.9295 48.3713 47.8944 48.3998C47.8592 48.4283 47.8344 48.4674 47.8235 48.5113L47.7583 48.8199L47.6638 49.2863L46.3671 55.3599C46.3482 55.4469 46.342 55.549 46.3529 55.5962C46.3638 55.6435 46.5339 55.6751 46.6223 55.6751H47.9549C48.0437 55.6751 48.1557 55.6591 48.2044 55.6397C48.253 55.6203 48.3244 55.4507 48.3461 55.359L48.8517 52.8573L49.3928 50.3226C49.4117 50.2361 49.4991 50.1657 49.5875 50.1652L53.7804 50.1633C53.8688 50.1633 53.925 50.0925 53.9047 50.006L53.8962 50.0117ZM59.2941 47.2742L58.9713 47.2756H57.6293C57.5802 47.2785 57.5322 47.2919 57.4887 47.3149C57.4452 47.3379 57.4071 47.3699 57.377 47.4089L54.4094 51.7563C54.3593 51.8295 54.3021 51.8187 54.2818 51.7327L54.0635 50.7748C54.0517 50.731 54.0262 50.6921 53.9908 50.6638C53.9553 50.6355 53.9118 50.6192 53.8664 50.6175H51.9587C51.8699 50.6175 51.817 50.6869 51.8415 50.7725L52.6921 53.7675C52.7167 53.8525 52.7181 53.9929 52.6969 54.0793L52.3188 55.5286C52.3124 55.5472 52.3107 55.5671 52.3139 55.5865C52.3171 55.6059 52.3251 55.6242 52.3371 55.6398C52.3492 55.6553 52.3649 55.6676 52.383 55.6755C52.401 55.6834 52.4207 55.6867 52.4403 55.6851H54.3305C54.4193 55.6851 54.51 55.6142 54.5318 55.5291L54.9098 54.0798C54.9394 53.9778 54.9857 53.8813 55.0468 53.7944L59.8696 47.3994C59.923 47.3285 59.8942 47.2709 59.8054 47.2718L59.2998 47.2751L59.2941 47.2742ZM44.1367 51.0248C44.1253 51.1193 44.0365 51.1902 43.9477 51.1902H41.5282C41.4446 51.1902 41.402 51.1335 41.4148 51.0626L41.4167 51.0498L41.4276 51.0087C41.6638 50.3944 42.1293 49.9913 43.0134 49.9913C44.0091 49.9913 44.2033 50.4781 44.1357 51.0248H44.1367ZM43.4269 48.233C40.3223 48.233 39.5865 50.1175 39.174 52.0195C38.761 53.9584 38.7969 55.7715 42.0093 55.7715H42.5187L42.9109 55.7701L44.9551 55.7578C45 55.7557 45.0429 55.7392 45.0776 55.7107C45.1123 55.6821 45.1368 55.6431 45.1474 55.5995L45.4579 54.0817C45.4759 53.9948 45.4177 53.9239 45.3289 53.9239H42.4407C41.2924 53.9239 40.9508 53.6186 41.0765 52.7212H45.6932C45.7688 52.7198 45.8374 52.674 45.8643 52.6022C45.869 52.5894 45.8738 52.5757 45.8756 52.562C46.5608 49.9772 46.3643 48.2349 43.4278 48.2349L43.4269 48.233ZM28.7524 51.0144L28.709 51.1689C28.709 51.1694 28.3602 52.4051 28.3602 52.4051L28.0115 53.6403C27.997 53.6839 27.9696 53.722 27.933 53.7497C27.8964 53.7774 27.8522 53.7933 27.8064 53.7953H25.9606C24.5609 53.7953 24.2202 52.7004 24.5609 51.0857C24.9012 49.4342 25.5698 48.4074 26.9473 48.3034C28.8299 48.1616 29.2061 49.4857 28.7524 51.0139V51.0144ZM30.0179 53.7008C30.0179 53.7008 30.8874 51.5885 31.0859 50.368C31.3552 48.7344 30.5377 46.3655 27.3787 46.3655C24.2377 46.3655 22.8739 48.6271 22.3537 51.0909C21.8339 53.5671 22.5153 55.7389 25.6379 55.7219L30.404 55.7044C30.4497 55.7022 30.4936 55.686 30.5297 55.6579C30.5658 55.6298 30.5924 55.5913 30.6058 55.5475L31.0074 54.0174C31.0139 53.9989 31.0157 53.979 31.0126 53.9597C31.0095 53.9403 31.0016 53.922 30.9896 53.9064C30.9777 53.8908 30.962 53.8785 30.9441 53.8705C30.9262 53.8625 30.9065 53.859 30.8869 53.8605L30.1181 53.8558C30.0425 53.8553 30 53.8067 30.0085 53.7424C30.0104 53.7306 30.0132 53.7188 30.0179 53.7065V53.7008Z" fill="#131B28"/>
<path d="M45.5667 52.2874C45.5667 52.346 45.5194 52.3933 45.4608 52.3933C45.4022 52.3933 45.355 52.346 45.355 52.2874C45.355 52.2288 45.4022 52.1816 45.4608 52.1816C45.5194 52.1816 45.5667 52.2288 45.5667 52.2874Z" fill="#131B28"/>
</svg>
