<svg width="76" height="76" viewBox="0 0 76 76" fill="none" xmlns="http://www.w3.org/2000/svg">
<circle cx="38" cy="38" r="38" fill="#E4E4E4"/>
<path fill-rule="evenodd" clip-rule="evenodd" d="M59.6709 25.2297C59.6871 25.29 59.6954 25.3521 59.6955 25.4146V35.1206C59.6955 35.2452 59.6628 35.3675 59.6007 35.4753C59.5386 35.5831 59.4493 35.6725 59.3418 35.7345L51.2378 40.4247V49.7212C51.2378 49.9742 51.1041 50.2077 50.8858 50.3351L33.9696 60.1242C33.9309 60.1464 33.8886 60.1605 33.8464 60.1755C33.8306 60.1809 33.8156 60.1906 33.7989 60.195C33.6806 60.2263 33.5563 60.2263 33.4381 60.195C33.4187 60.1897 33.4011 60.1791 33.3826 60.172C33.3439 60.1579 33.3034 60.1455 33.2665 60.1242L16.3538 50.3351C16.2463 50.273 16.157 50.1836 16.0949 50.0758C16.0328 49.9681 16.0001 49.8457 16 49.7212V20.6032C16 20.5395 16.0088 20.4775 16.0246 20.4174C16.0299 20.397 16.0422 20.3785 16.0493 20.3581C16.0625 20.321 16.0748 20.2829 16.0942 20.2484C16.1074 20.2254 16.1267 20.2069 16.1426 20.1856C16.1628 20.1573 16.1813 20.1281 16.205 20.1034C16.2253 20.083 16.2517 20.068 16.2746 20.0503C16.3001 20.029 16.323 20.006 16.352 19.9892H16.3529L24.8097 15.0947C24.9168 15.0327 25.0381 15.0001 25.1617 15.0001C25.2852 15.0001 25.4066 15.0327 25.5137 15.0947L33.9705 19.9892H33.9722C34.0004 20.0069 34.0242 20.029 34.0497 20.0494C34.0726 20.0671 34.0981 20.083 34.1183 20.1025C34.143 20.1281 34.1606 20.1573 34.1817 20.1856C34.1966 20.2069 34.2169 20.2254 34.2292 20.2484C34.2494 20.2838 34.2609 20.321 34.275 20.3581C34.282 20.3785 34.2943 20.397 34.2996 20.4183C34.3158 20.4786 34.3241 20.5407 34.3242 20.6032V38.79L41.3713 34.711V25.4137C41.3713 25.3518 41.3801 25.289 41.3959 25.2297C41.4021 25.2085 41.4135 25.1899 41.4206 25.1695C41.4346 25.1324 41.447 25.0944 41.4663 25.0599C41.4795 25.0369 41.4989 25.0183 41.5138 24.997C41.535 24.9687 41.5526 24.9395 41.5772 24.9148C41.5974 24.8944 41.623 24.8794 41.6458 24.8617C41.6722 24.8405 41.6951 24.8175 41.7233 24.8007H41.7242L50.1818 19.9061C50.2889 19.8441 50.4103 19.8114 50.5338 19.8114C50.6574 19.8114 50.7788 19.8441 50.8858 19.9061L59.3426 24.8007C59.3726 24.8184 59.3954 24.8405 59.4218 24.8608C59.4438 24.8785 59.4694 24.8944 59.4896 24.9139C59.5142 24.9395 59.5318 24.9687 59.553 24.997C59.5688 25.0183 59.5882 25.0369 59.6005 25.0599C59.6207 25.0944 59.6322 25.1324 59.6462 25.1695C59.6542 25.1899 59.6656 25.2085 59.6709 25.2297V25.2297ZM58.2858 34.711V26.6398L55.3263 28.3524L51.2378 30.7187V38.79L58.2866 34.711H58.2858ZM49.829 49.3116V41.235L45.8074 43.5439L34.3234 50.1325V58.2851L49.829 49.3116ZM17.4098 21.8284V49.3116L32.9136 58.2842V50.1334L24.8141 45.5254L24.8114 45.5237L24.8079 45.5219C24.7806 45.506 24.7578 45.483 24.7322 45.4635C24.7102 45.4458 24.6847 45.4317 24.6654 45.4122L24.6636 45.4095C24.6407 45.3874 24.6249 45.36 24.6055 45.3352C24.5879 45.3114 24.5668 45.291 24.5527 45.2662L24.5518 45.2636C24.536 45.237 24.5263 45.2052 24.5149 45.1751C24.5034 45.1486 24.4885 45.1238 24.4814 45.0955V45.0946C24.4726 45.061 24.4709 45.0256 24.4674 44.9911C24.4638 44.9646 24.4568 44.938 24.4568 44.9115V44.9097V25.9073L20.3692 23.5401L17.4098 21.8292V21.8284ZM25.1626 16.526L18.1164 20.6032L25.1608 24.6804L32.2061 20.6023L25.1608 16.526H25.1626ZM28.8269 41.971L32.9145 39.6056V21.8284L29.955 23.541L25.8666 25.9073V43.6845L28.8269 41.971ZM50.5338 21.3374L43.4886 25.4146L50.5338 29.4918L57.5782 25.4137L50.5338 21.3374V21.3374ZM49.829 30.7187L45.7405 28.3524L42.781 26.6398V34.711L46.8686 37.0765L49.829 38.79V30.7187ZM33.6176 48.9073L43.9514 42.9769L49.117 40.0134L42.077 35.9389L33.9714 40.63L26.5838 44.9053L33.6176 48.9073V48.9073Z" fill="#088286"/>
</svg>
