<svg width="144" height="33" viewBox="0 0 144 33" fill="none" xmlns="http://www.w3.org/2000/svg">
<path d="M14.97 21.28H7.11L5.85 25H0.48L8.1 3.94H14.04L21.66 25H16.23L14.97 21.28ZM13.65 17.32L11.04 9.61L8.46 17.32H13.65ZM34.1791 8.08C36.1391 8.08 37.6991 8.72 38.8591 10C40.0391 11.26 40.6291 13 40.6291 15.22V25H35.5291V15.91C35.5291 14.79 35.2391 13.92 34.6591 13.3C34.0791 12.68 33.2991 12.37 32.3191 12.37C31.3391 12.37 30.5591 12.68 29.9791 13.3C29.3991 13.92 29.1091 14.79 29.1091 15.91V25H23.9791V8.26H29.1091V10.48C29.6291 9.74 30.3291 9.16 31.2091 8.74C32.0891 8.3 33.0791 8.08 34.1791 8.08ZM46.744 6.52C45.844 6.52 45.104 6.26 44.524 5.74C43.964 5.2 43.684 4.54 43.684 3.76C43.684 2.96 43.964 2.3 44.524 1.78C45.104 1.24 45.844 0.969998 46.744 0.969998C47.624 0.969998 48.344 1.24 48.904 1.78C49.484 2.3 49.774 2.96 49.774 3.76C49.774 4.54 49.484 5.2 48.904 5.74C48.344 6.26 47.624 6.52 46.744 6.52ZM49.324 27.16C49.324 29.22 48.804 30.7 47.764 31.6C46.724 32.52 45.274 32.98 43.414 32.98H41.404V28.63H42.634C43.194 28.63 43.594 28.52 43.834 28.3C44.074 28.08 44.194 27.72 44.194 27.22V8.26H49.324V27.16ZM51.9923 16.6C51.9923 14.88 52.3123 13.37 52.9523 12.07C53.6123 10.77 54.5023 9.77 55.6223 9.07C56.7423 8.37 57.9923 8.02 59.3723 8.02C60.5523 8.02 61.5823 8.26 62.4623 8.74C63.3623 9.22 64.0523 9.85 64.5323 10.63V8.26H69.6623V25H64.5323V22.63C64.0323 23.41 63.3323 24.04 62.4323 24.52C61.5523 25 60.5223 25.24 59.3423 25.24C57.9823 25.24 56.7423 24.89 55.6223 24.19C54.5023 23.47 53.6123 22.46 52.9523 21.16C52.3123 19.84 51.9923 18.32 51.9923 16.6ZM64.5323 16.63C64.5323 15.35 64.1723 14.34 63.4523 13.6C62.7523 12.86 61.8923 12.49 60.8723 12.49C59.8523 12.49 58.9823 12.86 58.2623 13.6C57.5623 14.32 57.2123 15.32 57.2123 16.6C57.2123 17.88 57.5623 18.9 58.2623 19.66C58.9823 20.4 59.8523 20.77 60.8723 20.77C61.8923 20.77 62.7523 20.4 63.4523 19.66C64.1723 18.92 64.5323 17.91 64.5323 16.63ZM80.1837 25.24C78.7237 25.24 77.4237 24.99 76.2837 24.49C75.1437 23.99 74.2437 23.31 73.5837 22.45C72.9237 21.57 72.5537 20.59 72.4737 19.51H77.5437C77.6037 20.09 77.8737 20.56 78.3537 20.92C78.8337 21.28 79.4237 21.46 80.1237 21.46C80.7637 21.46 81.2537 21.34 81.5937 21.1C81.9537 20.84 82.1337 20.51 82.1337 20.11C82.1337 19.63 81.8837 19.28 81.3837 19.06C80.8837 18.82 80.0737 18.56 78.9537 18.28C77.7537 18 76.7537 17.71 75.9537 17.41C75.1537 17.09 74.4637 16.6 73.8837 15.94C73.3037 15.26 73.0137 14.35 73.0137 13.21C73.0137 12.25 73.2737 11.38 73.7937 10.6C74.3337 9.8 75.1137 9.17 76.1337 8.71C77.1737 8.25 78.4037 8.02 79.8237 8.02C81.9237 8.02 83.5737 8.54 84.7737 9.58C85.9937 10.62 86.6937 12 86.8737 13.72H82.1337C82.0537 13.14 81.7937 12.68 81.3537 12.34C80.9337 12 80.3737 11.83 79.6737 11.83C79.0737 11.83 78.6137 11.95 78.2937 12.19C77.9737 12.41 77.8137 12.72 77.8137 13.12C77.8137 13.6 78.0637 13.96 78.5637 14.2C79.0837 14.44 79.8837 14.68 80.9637 14.92C82.2037 15.24 83.2137 15.56 83.9937 15.88C84.7737 16.18 85.4537 16.68 86.0337 17.38C86.6337 18.06 86.9437 18.98 86.9637 20.14C86.9637 21.12 86.6837 22 86.1237 22.78C85.5837 23.54 84.7937 24.14 83.7537 24.58C82.7337 25.02 81.5437 25.24 80.1837 25.24Z" fill="#088286"/>
<path d="M113.952 3.94V25H108.822V12.37L104.112 25H99.9722L95.2322 12.34V25H90.1022V3.94H96.1622L102.072 18.52L107.922 3.94H113.952ZM120.041 25.24C119.141 25.24 118.401 24.98 117.821 24.46C117.261 23.92 116.981 23.26 116.981 22.48C116.981 21.68 117.261 21.01 117.821 20.47C118.401 19.93 119.141 19.66 120.041 19.66C120.921 19.66 121.641 19.93 122.201 20.47C122.781 21.01 123.071 21.68 123.071 22.48C123.071 23.26 122.781 23.92 122.201 24.46C121.641 24.98 120.921 25.24 120.041 25.24ZM131.238 10.63C131.738 9.85 132.428 9.22 133.308 8.74C134.188 8.26 135.218 8.02 136.398 8.02C137.778 8.02 139.028 8.37 140.148 9.07C141.268 9.77 142.148 10.77 142.788 12.07C143.448 13.37 143.778 14.88 143.778 16.6C143.778 18.32 143.448 19.84 142.788 21.16C142.148 22.46 141.268 23.47 140.148 24.19C139.028 24.89 137.778 25.24 136.398 25.24C135.238 25.24 134.208 25 133.308 24.52C132.428 24.04 131.738 23.42 131.238 22.66V32.98H126.108V8.26H131.238V10.63ZM138.558 16.6C138.558 15.32 138.198 14.32 137.478 13.6C136.778 12.86 135.908 12.49 134.868 12.49C133.848 12.49 132.978 12.86 132.258 13.6C131.558 14.34 131.208 15.35 131.208 16.63C131.208 17.91 131.558 18.92 132.258 19.66C132.978 20.4 133.848 20.77 134.868 20.77C135.888 20.77 136.758 20.4 137.478 19.66C138.198 18.9 138.558 17.88 138.558 16.6Z" fill="#09B7BD"/>
</svg>
