<svg width="76" height="76" viewBox="0 0 76 76" fill="none" xmlns="http://www.w3.org/2000/svg">
<circle cx="38" cy="38" r="38" fill="#E4E4E4"/>
<path d="M7.87183 37.5C7.87183 46.1375 21.361 53.1397 38 53.1397C54.6391 53.1397 68.1283 46.1375 68.1283 37.5C68.1283 28.8626 54.6391 21.8603 38 21.8603C21.361 21.8603 7.87183 28.8626 7.87183 37.5Z" fill="url(#paint0_radial)"/>
<path d="M37.9999 51.9785C53.989 51.9785 66.9512 45.4962 66.9512 37.5C66.9512 29.5038 53.989 23.0214 37.9999 23.0214C22.0107 23.0214 9.04858 29.5038 9.04858 37.5C9.04858 45.4962 22.0107 51.9785 37.9999 51.9785Z" fill="#088286"/>
<path d="M24.2408 39.2951C25.5556 39.2951 26.5371 39.0558 27.1581 38.5842C27.7725 38.1174 28.1968 37.3086 28.4192 36.1805C28.6266 35.126 28.5476 34.3897 28.1845 33.9924C27.8132 33.5865 27.0105 33.3807 25.7988 33.3807H23.6977L22.5329 39.2951H24.2408ZM17.3688 46.5806C17.2713 46.5806 17.1787 46.5376 17.1167 46.4631C17.0545 46.3888 17.0294 46.291 17.048 46.1965L20.1349 30.5232C20.1648 30.3717 20.2994 30.2622 20.4558 30.2622H27.1089C29.1999 30.2622 30.7562 30.8225 31.7344 31.9276C32.7179 33.0385 33.0216 34.5914 32.637 36.5431C32.4805 37.3382 32.2114 38.0766 31.8371 38.7377C31.4623 39.3996 30.967 40.012 30.3648 40.5583C29.6438 41.2242 28.8278 41.707 27.9417 41.9911C27.0696 42.2714 25.9496 42.4136 24.6129 42.4136H21.9189L21.1495 46.3195C21.1197 46.4711 20.9852 46.5806 20.8287 46.5806H17.3688Z" fill="#E4E4E4"/>
<path d="M23.9672 33.7032H25.7988C27.2613 33.7032 27.7693 34.0199 27.9419 34.2086C28.2283 34.522 28.2823 35.1827 28.0983 36.1192C27.8915 37.1677 27.5081 37.9111 26.9587 38.3285C26.3962 38.7559 25.4817 38.9724 24.2409 38.9724H22.9295L23.9672 33.7032ZM27.109 29.9395H20.4558C20.1428 29.9395 19.8737 30.1585 19.814 30.4616L16.7271 46.1349C16.6898 46.324 16.7402 46.5196 16.8643 46.6684C16.9885 46.8171 17.1736 46.9031 17.3688 46.9031H20.8287C21.1417 46.9031 21.4108 46.6842 21.4705 46.381L22.1884 42.7361H24.6129C25.9839 42.7361 27.1382 42.5886 28.0432 42.2977C28.9739 41.9993 29.8302 41.4934 30.5881 40.794C31.2149 40.2249 31.7312 39.5861 32.1224 38.8952C32.5137 38.2041 32.7948 37.4334 32.9579 36.6045C33.3628 34.5502 33.0339 32.9051 31.9806 31.7154C30.9375 30.537 29.2984 29.9395 27.109 29.9395ZM22.1363 39.6176H24.2409C25.6358 39.6176 26.6748 39.3584 27.3575 38.8397C28.0403 38.321 28.5008 37.4552 28.7401 36.242C28.9691 35.0772 28.8648 34.2552 28.4273 33.7764C27.9892 33.2975 27.1132 33.058 25.7988 33.058H23.4283L22.1363 39.6176V39.6176ZM27.109 30.5847C29.1104 30.5847 30.5705 31.103 31.4883 32.1398C32.4059 33.1765 32.6823 34.6236 32.3161 36.4815C32.1654 37.2468 31.9105 37.9466 31.5517 38.5805C31.1924 39.2148 30.7233 39.7949 30.1436 40.3208C29.4527 40.9588 28.6852 41.4135 27.8407 41.6842C26.9962 41.9558 25.9205 42.0909 24.6129 42.0909H21.6493L20.8287 46.2579H17.3688L20.4558 30.5847H27.109" fill="#948888"/>
<path d="M40.5699 42.4136C40.4723 42.4136 40.3797 42.3706 40.3177 42.2962C40.2555 42.2219 40.2304 42.1241 40.249 42.0295L41.6145 35.0947C41.7444 34.4352 41.7124 33.9618 41.5244 33.7618C41.4093 33.6395 41.0636 33.4345 40.0416 33.4345H37.5678L35.8509 42.1525C35.8211 42.3041 35.6865 42.4136 35.53 42.4136H32.0974C31.9998 42.4136 31.9073 42.3706 31.8452 42.2962C31.7831 42.2219 31.7579 42.124 31.7765 42.0295L34.8634 26.3562C34.8933 26.2047 35.0279 26.0952 35.1844 26.0952H38.6169C38.7146 26.0952 38.8071 26.1382 38.8692 26.2125C38.9313 26.287 38.9565 26.3847 38.9379 26.4793L38.1929 30.2622H40.8542C42.8816 30.2622 44.2564 30.6149 45.0571 31.3406C45.8733 32.0808 46.1279 33.2645 45.8141 34.859L44.3779 42.1525C44.348 42.3041 44.2136 42.4136 44.057 42.4136H40.5699Z" fill="#E4E4E4"/>
<path d="M38.617 25.7726H35.1844C34.8713 25.7726 34.6023 25.9915 34.5425 26.2946L31.4556 41.9679C31.4184 42.1571 31.4687 42.3527 31.5929 42.5014C31.7172 42.6501 31.9022 42.7361 32.0975 42.7361H35.53C35.843 42.7361 36.1122 42.5172 36.1719 42.2141L37.8373 33.757H40.0416C41.0619 33.757 41.2761 33.9721 41.2847 33.9813C41.3466 34.047 41.428 34.3514 41.2936 35.0331L39.9281 41.9679C39.8908 42.1571 39.9412 42.3527 40.0654 42.5014C40.1896 42.6501 40.3746 42.7361 40.5699 42.7361H44.057C44.3699 42.7361 44.6391 42.5172 44.6988 42.2141L46.1349 34.9205C46.472 33.2085 46.1836 31.9242 45.2783 31.1031C44.4144 30.3201 42.9673 29.9395 40.8542 29.9395H38.5894L39.2588 26.5409C39.2959 26.3518 39.2457 26.156 39.1215 26.0074C38.9973 25.8587 38.8122 25.7726 38.617 25.7726ZM38.617 26.4178L37.7963 30.5847H40.8542C42.7783 30.5847 44.1055 30.9162 44.8359 31.5781C45.5663 32.2406 45.7851 33.3139 45.4932 34.7975L44.057 42.0909H40.5699L41.9354 35.1562C42.0908 34.3674 42.0337 33.8293 41.7639 33.5424C41.494 33.2555 40.9198 33.1118 40.0416 33.1118H37.2982L35.53 42.0909H32.0975L35.1844 26.4178H38.617Z" fill="#948888"/>
<path d="M51.2454 39.2951C52.5602 39.2951 53.5417 39.0558 54.1627 38.5842C54.7771 38.1175 55.2014 37.3087 55.4239 36.1805C55.6313 35.126 55.5523 34.3897 55.1891 33.9924C54.8178 33.5865 54.0151 33.3807 52.8034 33.3807H50.7023L49.5376 39.2951H51.2454ZM44.3735 46.5806C44.276 46.5806 44.1834 46.5376 44.1214 46.4631C44.0593 46.3888 44.034 46.291 44.0526 46.1965L47.1395 30.5232C47.1695 30.3717 47.304 30.2622 47.4606 30.2622H54.1135C56.2046 30.2622 57.7608 30.8225 58.7391 31.9276C59.7226 33.0384 60.0262 34.5913 59.6417 36.5431C59.485 37.3382 59.216 38.0766 58.8417 38.7377C58.4669 39.3996 57.9716 40.012 57.3694 40.5583C56.6484 41.2242 55.8324 41.707 54.9463 41.9911C54.0742 42.2714 52.9542 42.4136 51.6175 42.4136H48.9234L48.1544 46.3195C48.1244 46.4711 47.99 46.5806 47.8334 46.5806H44.3735Z" fill="#E4E4E4"/>
<path d="M50.9717 33.7032H52.8033C54.2658 33.7032 54.7738 34.0199 54.9464 34.2086C55.2329 34.522 55.287 35.1827 55.1028 36.1191C54.896 37.1677 54.5125 37.9111 53.9632 38.3285C53.4007 38.7559 52.4862 38.9724 51.2454 38.9724H49.9341L50.9717 33.7032ZM54.1135 29.9395H47.4604C47.1474 29.9395 46.8784 30.1585 46.8187 30.4616L43.7318 46.1349C43.6945 46.324 43.7448 46.5196 43.8689 46.6684C43.9932 46.8171 44.1782 46.9031 44.3735 46.9031H47.8333C48.1463 46.9031 48.4154 46.6842 48.4751 46.381L49.1929 42.7361H51.6174C52.9885 42.7361 54.1427 42.5886 55.0477 42.2977C55.9784 41.9993 56.8349 41.4933 57.5928 40.7937C58.2196 40.2248 58.7357 39.5861 59.1269 38.8952C59.5182 38.2041 59.7993 37.4334 59.9625 36.6045C60.3673 34.5501 60.0384 32.905 58.9851 31.7152C57.942 30.537 56.303 29.9395 54.1135 29.9395ZM49.1409 39.6176H51.2454C52.6403 39.6176 53.6793 39.3584 54.362 38.8397C55.045 38.321 55.5054 37.4552 55.7447 36.242C55.9737 35.0772 55.8694 34.2552 55.4318 33.7764C54.9937 33.2975 54.1177 33.058 52.8033 33.058H50.4328L49.1409 39.6176ZM54.1135 30.5847C56.1149 30.5847 57.575 31.103 58.4928 32.1398C59.4105 33.1765 59.6868 34.6236 59.3206 36.4815C59.1699 37.2468 58.915 37.9465 58.5562 38.5805C58.1969 39.2148 57.7278 39.7949 57.1481 40.3208C56.4572 40.9588 55.6897 41.4135 54.8452 41.6842C54.0007 41.9558 52.925 42.0909 51.6174 42.0909H48.6538L47.8333 46.2579H44.3735L47.4604 30.5847H54.1135" fill="#948888"/>
<defs>
<radialGradient id="paint0_radial" cx="0" cy="0" r="1" gradientUnits="userSpaceOnUse" gradientTransform="translate(25.9609 27.3587) scale(39.5626 39.0413)">
<stop stop-color="#088286"/>
<stop offset="0.3" stop-color="#0B7C80" stop-opacity="0.78"/>
<stop offset="0.75" stop-color="#0B7C80"/>
<stop offset="1" stop-color="#0B7C80"/>
</radialGradient>
</defs>
</svg>
