<svg width="76" height="76" viewBox="0 0 76 76" fill="none" xmlns="http://www.w3.org/2000/svg">
<circle cx="38" cy="38" r="38" fill="#E4E4E4"/>
<g clip-path="url(#clip0)">
<path d="M59.6327 39.405C57.535 39.4153 55.7186 39.8519 54.1952 40.502C53.6327 39.5372 53.0702 38.6941 52.9766 38.0645C52.8711 37.3333 52.7422 36.8863 52.8711 36.0129C52.9999 35.1394 53.5858 33.9003 53.5858 33.7988C53.574 33.7074 53.4568 33.2605 52.2499 33.2503C51.043 33.2402 49.9999 33.4535 49.8827 33.7277C49.7655 34.0019 49.5311 34.6316 49.3788 35.2816C49.1678 36.2363 46.9647 39.6183 45.7108 41.3957C45.3007 40.705 44.9491 40.0957 44.8787 39.6081C44.7733 38.8769 44.6443 38.4299 44.7733 37.5566C44.9022 36.6831 45.4882 35.4441 45.4882 35.3425C45.4764 35.2511 45.3593 34.8042 44.1523 34.7941C42.9452 34.7839 41.9023 34.9972 41.7852 35.2714C41.668 35.5457 41.5391 36.1957 41.2812 36.8253C41.035 37.455 38.1053 43.1019 37.3436 44.5746C36.9569 45.3261 36.6172 45.9253 36.371 46.3316C36.1249 46.7378 36.3593 46.3621 36.3358 46.4027C36.1249 46.748 36.0077 46.941 36.0077 46.941V46.9512C35.8436 47.2051 35.6678 47.4488 35.5857 47.4488C35.5271 47.4488 35.4099 46.7683 35.6091 45.834C36.0427 43.8738 37.0974 40.8168 37.0858 40.7051C37.0858 40.6543 37.2849 40.116 36.406 39.8418C35.5505 39.5676 35.246 40.0247 35.1755 40.0247C35.1052 40.0247 35.0466 40.1872 35.0466 40.1872C35.0466 40.1872 35.9959 36.7443 33.2302 36.7443C31.4959 36.7443 29.1052 38.3795 27.9216 39.8724C27.1716 40.2279 25.5779 40.9793 23.8904 41.7818C23.2459 42.0865 22.5779 42.4115 21.9451 42.706L21.8163 42.5839C18.4647 39.4863 12.2655 37.2925 12.5233 33.1285C12.6171 31.6152 13.2264 27.6238 24.4297 22.7894C33.6055 18.8285 40.9531 19.9152 42.2303 22.3324C44.0468 25.7855 38.3046 32.2042 28.7656 33.1285C25.1328 33.4839 23.2225 32.2652 22.7422 31.8082C22.2383 31.3308 22.168 31.3105 21.9805 31.4019C21.6758 31.5441 21.8633 31.9707 21.9805 32.2246C22.2617 32.8644 23.4336 34.0019 25.4258 34.5707C27.1718 35.0683 31.4375 35.3425 36.5937 33.616C42.3711 31.6761 46.8828 26.2933 45.5586 21.7941C44.2109 17.2136 35.4453 15.7105 27.1602 18.2597C22.2264 19.7832 16.8827 22.1597 13.0389 25.2777C8.46863 28.9746 7.74207 32.2042 8.04676 33.5449C9.11328 38.3285 16.7186 41.4464 19.7655 43.7519C19.6132 43.8229 19.4725 43.894 19.3436 43.955C17.8202 44.6049 12.0194 47.2355 10.5663 50.0182C8.92566 53.1666 10.8241 55.4316 12.0897 55.7363C16.0038 56.6808 20.0116 54.9847 22.1796 52.1917C24.3357 49.3988 24.078 45.773 23.0819 44.1175L23.0466 44.0566L24.242 43.4472C25.0155 43.0511 25.7772 42.6855 26.4451 42.3706C26.0702 43.2541 25.8005 44.3002 25.66 45.8237C25.496 47.6113 26.3397 49.9268 27.453 50.8409C27.9452 51.2369 28.5311 51.2471 28.8944 51.2471C30.1835 51.2471 30.7694 50.3228 31.4139 49.2159C32.2108 47.8651 32.9139 46.301 32.9139 46.301C32.9139 46.301 32.035 50.5362 34.4374 50.5362C35.3163 50.5362 36.1952 49.551 36.5936 49.0432V49.0534C36.5936 49.0534 36.6171 49.0229 36.6639 48.9518C36.7131 48.8888 36.76 48.8245 36.8046 48.7589V48.7386C37.1561 48.2105 37.9413 47.0019 39.1132 45.0011C40.6248 42.4214 42.078 39.1917 42.078 39.1917C42.078 39.1917 42.2186 39.9839 42.6522 41.2839C42.9099 42.0559 43.4724 42.8988 43.906 43.7214C43.5544 44.148 43.3435 44.3918 43.3435 44.3918L43.3552 44.402C43.0741 44.727 42.7576 45.0724 42.4296 45.4176C41.2343 46.6567 39.8046 48.0685 39.6171 48.4748C39.3944 48.952 39.4413 49.3075 39.8749 49.592C40.1913 49.7951 40.7538 49.8356 41.3514 49.7951C42.4296 49.734 43.1796 49.5005 43.5546 49.3583C44.1405 49.1754 44.8085 48.9012 45.453 48.495C46.6249 47.7435 47.3397 46.6771 47.2694 45.2552C47.2343 44.4732 46.9413 43.7013 46.578 42.9701C46.6835 42.838 46.7891 42.7059 46.8944 42.5638C48.746 40.2176 50.1757 37.638 50.1757 37.638C50.1757 37.638 50.3163 38.4302 50.7499 39.7302C50.9724 40.3904 51.4178 41.1116 51.8163 41.8225C50.0819 43.0514 48.9921 44.4733 48.6171 45.4077C47.9257 47.1342 48.4647 47.9163 49.4843 48.0991C49.9412 48.1803 50.5975 47.9975 51.0896 47.8147C51.699 47.6421 52.4373 47.3474 53.1171 46.9108C54.2889 46.1592 55.4139 45.1131 55.3553 43.7014C55.3202 43.0514 55.121 42.4116 54.8514 41.8022C56.328 41.2741 58.238 40.9694 60.6639 41.2233C65.8788 41.7514 66.91 44.5749 66.7109 45.753C66.5117 46.9312 65.4219 47.5811 65.0585 47.7842C64.6952 47.9772 64.578 48.0484 64.6132 48.1905C64.66 48.4039 64.8241 48.3936 65.1405 48.3531C65.5741 48.2921 67.8827 47.3882 67.9764 45.2149C68.1171 42.4215 65.0585 39.3747 59.6327 39.405V39.405ZM19.4139 51.1558C17.6913 52.791 15.2655 53.4105 14.2343 52.8824C13.121 52.3238 13.5545 49.9167 15.6757 48.18C16.9647 47.1238 18.6405 46.1488 19.7421 45.5496C19.9882 45.4175 20.3632 45.2247 20.8085 44.991C20.8788 44.9504 20.9257 44.93 20.9257 44.93C21.0077 44.8894 21.1014 44.8386 21.1952 44.7878C21.9803 47.266 21.2303 49.4394 19.4139 51.1558V51.1558ZM32.0116 43.7316C31.4139 45.0011 30.1483 48.2613 29.3866 48.0785C28.7302 47.9261 28.3319 45.4582 29.2576 43.0207C29.7263 41.7916 30.7224 40.3292 31.3084 39.7604C32.2577 38.8463 33.2888 38.5416 33.5468 38.9174C33.8514 39.405 32.3866 42.9394 32.0116 43.7316ZM42.4061 48.0378C42.1483 48.1497 41.9139 48.2308 41.8085 48.17C41.7264 48.1293 41.9138 47.977 41.9138 47.977C41.9138 47.977 43.2146 46.7684 43.7302 46.2098C44.0232 45.8849 44.3748 45.5091 44.7498 45.0825V45.2043C44.7499 46.6667 43.1327 47.6417 42.4061 48.0378ZM50.4216 46.4535C50.2341 46.3316 50.2577 45.9558 50.8904 44.7777C51.1366 44.3105 51.699 43.5285 52.6716 42.7871C52.7888 43.0917 52.8593 43.3862 52.8474 43.6605C52.8358 45.4886 51.3358 46.1691 50.4216 46.4535Z" fill="#088286"/>
</g>
<defs>
<clipPath id="clip0">
<rect width="60" height="39" fill="white" transform="translate(8 17)"/>
</clipPath>
</defs>
</svg>
