<svg width="76" height="76" viewBox="0 0 76 76" fill="none" xmlns="http://www.w3.org/2000/svg">
<circle cx="38" cy="38" r="38" fill="#E4E4E4"/>
<g clip-path="url(#clip0)">
<path d="M33.8807 54.057L22.5 57.1213L11.1191 54.057L8.49292 25.6053H36.5072L33.8807 54.057Z" fill="#088286"/>
<path d="M22.4998 27.9098V54.6772L22.5255 54.6843L31.7354 52.2043L33.8612 27.9098H22.4998Z" fill="#09B7BD"/>
<path d="M22.4898 35.0239L14.3442 38.4163L14.6144 41.775L22.4898 38.4078L30.8671 34.826L31.2145 31.3902L22.4898 35.0239Z" fill="white"/>
<path d="M14.3442 38.4163L14.6144 41.775L22.4898 38.4078V35.0239L14.3442 38.4163V38.4163Z" fill="url(#paint0_linear)"/>
<path d="M31.2142 31.3903L22.4895 35.0239V38.4077L30.8669 34.826L31.2142 31.3903Z" fill="url(#paint1_linear)"/>
<path d="M14.3564 38.4163L14.6267 41.775L26.7104 41.8135L26.4401 46.2918L22.4639 47.4112L18.6415 46.4461L18.4099 43.6665H14.8583L15.3216 49.0326L22.5025 51.1559L29.6444 49.0711L30.571 38.4163H14.3564V38.4163Z" fill="url(#paint2_linear)"/>
<path opacity="0.05" d="M22.4898 38.4163H14.3442L14.6144 41.775L22.4898 41.8002V38.4163ZM22.4898 47.4005L22.4512 47.4113L18.6293 46.4462L18.3977 43.6666H14.8461L15.3094 49.0327L22.4898 51.1559V47.4005Z" fill="black"/>
<path d="M13.6106 31.3903H31.2144L30.8671 34.8261H14.0352L13.6106 31.3903V31.3903Z" fill="url(#paint3_linear)"/>
<path opacity="0.05" d="M22.4897 31.3903H13.6106L14.0352 34.8261H22.4897V31.3903V31.3903Z" fill="black"/>
</g>
<path d="M43.4571 52.9463L41 25.4689H68L65.5402 52.942L54.4834 55.9982L43.4571 52.9463Z" fill="#088286"/>
<path d="M54.5 53.6622L63.4343 51.1925L65.5365 27.7156H54.5V53.6622Z" fill="#09B7BD"/>
<path d="M54.5 37.9067H50.0273L49.7183 34.4557H54.5V31.0857H46.0242L46.1052 31.9898L46.9359 41.2766H54.5V37.9067ZM54.5 46.6588L54.4851 46.6629L50.7207 45.6494L50.48 42.9617H47.087L47.5606 48.2531L54.4845 50.1695L54.5 50.1651V46.6588Z" fill="#EBEBEB"/>
<path d="M54.4883 37.9066V41.2766H58.6506L58.2582 45.6472L54.4883 46.6616V50.1676L61.4177 48.2531L61.4684 47.6836L62.2628 38.8116L62.3453 37.9066H61.4345H54.4883ZM54.4883 31.0857V34.4557H62.6529L62.7206 33.6982L62.8746 31.9898L62.9555 31.0857H54.4883Z" fill="white"/>
<path d="M46 20H47.2479V20.9907H48.3894V20H49.6374V23H48.3894V21.9954H47.2479V23H46.0001L46 20ZM51.2785 20.9949H50.18V20H53.6257V20.9949H52.5267V23H51.2786V20.9949H51.2785ZM54.1725 20H55.4738L56.2743 21.0541L57.074 20H58.3757V23H57.1327V21.513L56.2741 22.5797H56.2527L55.3935 21.513V23H54.1725V20H54.1725ZM58.9967 20H60.2449V22.0084H62V23H58.9967V20Z" fill="black"/>
<path d="M19.0032 22.0314V21.0614H20.3408V20H18V23H20.3408V22.0314H19.0032ZM22.7469 21.0614H23.6821V20H21.3411V21.0614C21.6543 21.3928 21.8176 21.5514 22.2706 22.0307C22.0058 22.0307 21.3411 22.0316 21.3411 22.0316V23H23.6821V22.0314L22.7469 21.0614ZM26.0649 21.0614H27V20H24.6589V21.0614C24.9721 21.3928 25.1355 21.5514 25.5885 22.0307C25.3238 22.0307 24.6589 22.0316 24.6589 22.0316V23H27V22.0314L26.0649 21.0614Z" fill="black"/>
<defs>
<linearGradient id="paint0_linear" x1="18.417" y1="41.7751" x2="18.417" y2="35.024" gradientUnits="userSpaceOnUse">
<stop offset="0.387" stop-color="#D1D3D4" stop-opacity="0"/>
<stop offset="1" stop-color="#D1D3D4"/>
</linearGradient>
<linearGradient id="paint1_linear" x1="26.8518" y1="38.4078" x2="26.8518" y2="31.3903" gradientUnits="userSpaceOnUse">
<stop offset="0.387" stop-color="#D1D3D4" stop-opacity="0"/>
<stop offset="1" stop-color="#D1D3D4"/>
</linearGradient>
<linearGradient id="paint2_linear" x1="14.3564" y1="44.7862" x2="30.571" y2="44.7862" gradientUnits="userSpaceOnUse">
<stop stop-color="#E8E7E5"/>
<stop offset="1" stop-color="white"/>
</linearGradient>
<linearGradient id="paint3_linear" x1="13.6106" y1="33.1082" x2="31.2143" y2="33.1082" gradientUnits="userSpaceOnUse">
<stop stop-color="#E8E7E5"/>
<stop offset="1" stop-color="white"/>
</linearGradient>
<clipPath id="clip0">
<rect width="29" height="45" fill="white" transform="translate(8 15)"/>
</clipPath>
</defs>
</svg>
