<svg width="76" height="76" viewBox="0 0 76 76" fill="none" xmlns="http://www.w3.org/2000/svg">
<circle cx="38" cy="38" r="38" fill="#E4E4E4"/>
<g clip-path="url(#clip0)">
<path d="M15.6961 37.9994C15.6961 46.8284 20.8267 54.4576 28.2667 58.0736L17.6271 28.9221C16.3517 31.7782 15.6936 34.8714 15.6961 37.9994V37.9994ZM53.0577 36.8738C53.0577 34.1173 52.0676 32.2083 51.2183 30.7224C50.0877 28.8852 49.0284 27.3293 49.0284 25.492C49.0284 23.4417 50.583 21.5331 52.7734 21.5331C52.8723 21.5331 52.9661 21.5454 53.0628 21.5509C49.0942 17.9154 43.8073 15.6958 38.0005 15.6958C30.2083 15.6958 23.3528 19.6937 19.3647 25.7492C19.8879 25.7649 20.3815 25.7755 20.8 25.7755C23.133 25.7755 26.7443 25.4924 26.7443 25.4924C27.9467 25.4216 28.0884 27.1875 26.8877 27.3297C26.8877 27.3297 25.679 27.4719 24.3345 27.5423L32.4569 51.7019L37.3384 37.0627L33.8629 27.5419C32.6618 27.4715 31.524 27.3293 31.524 27.3293C30.3221 27.2588 30.463 25.4211 31.6649 25.492C31.6649 25.492 35.3484 25.7751 37.54 25.7751C39.8726 25.7751 43.4843 25.492 43.4843 25.492C44.6875 25.4211 44.8288 27.1871 43.6273 27.3293C43.6273 27.3293 42.4165 27.4715 41.0745 27.5419L49.1349 51.5185L51.3592 44.0841C52.3239 40.9991 53.0577 38.7833 53.0577 36.8738V36.8738Z" fill="#088286"/>
<path d="M38.3918 39.9504L31.6997 59.396C33.7457 59.999 35.8676 60.3051 38.0005 60.3051C40.5979 60.3051 43.0888 59.8556 45.4073 59.0408C45.3451 58.9434 45.292 58.8406 45.2486 58.7335L38.3918 39.9504ZM57.5718 27.2983C57.6677 28.0088 57.722 28.7719 57.722 29.5918C57.722 31.8552 57.2993 34.3995 56.0261 37.5809L49.213 57.2791C55.844 53.4123 60.3041 46.2283 60.3041 37.9994C60.3101 34.259 59.3702 30.5779 57.5718 27.2983V27.2983Z" fill="#088286"/>
<path d="M38.0017 12C23.6655 12 12.0015 23.6632 12.0015 37.9994C12.0015 52.3372 23.6651 64.0004 38.0017 64.0004C52.3374 64.0004 64.0032 52.3376 64.0032 37.9994C64.0027 23.6632 52.3374 12 38.0017 12ZM38.0017 62.8082C24.3229 62.8082 13.1936 51.6789 13.1936 37.9994C13.1936 24.321 24.3225 13.1926 38.0017 13.1926C51.68 13.1926 62.8084 24.321 62.8084 37.9994C62.8084 51.6789 51.6796 62.8082 38.0017 62.8082Z" fill="#088286"/>
</g>
<defs>
<clipPath id="clip0">
<rect width="52" height="52" fill="white" transform="translate(12 12)"/>
</clipPath>
</defs>
</svg>
